<mxfile host="app.diagrams.net" modified="2023-05-31T12:54:54.717Z" agent="Mozilla/5.0 (Windows NT 10.0; Win64; x64) AppleWebKit/537.36 (KHTML, like Gecko) Chrome/113.0.0.0 Safari/537.36" etag="b_zyzW3WbT7ZG6T1BAla" version="21.3.6" type="google">
  <diagram name="Page-1" id="sek1rrs6Zul0gTk4e69I">
    <mxGraphModel grid="1" page="1" gridSize="10" guides="1" tooltips="1" connect="1" arrows="1" fold="1" pageScale="1" pageWidth="850" pageHeight="1100" math="0" shadow="0">
      <root>
        <mxCell id="0" />
        <mxCell id="1" parent="0" />
        <mxCell id="y2QLyuOmQJnm9BtM_lpy-1" value="" style="ellipse;html=1;shape=startState;fillColor=#000000;strokeColor=#ff0000;" vertex="1" parent="1">
          <mxGeometry x="100" y="60" width="30" height="30" as="geometry" />
        </mxCell>
        <mxCell id="y2QLyuOmQJnm9BtM_lpy-2" value="" style="edgeStyle=orthogonalEdgeStyle;html=1;verticalAlign=bottom;endArrow=open;endSize=8;strokeColor=#ff0000;rounded=0;" edge="1" parent="1" source="y2QLyuOmQJnm9BtM_lpy-1" target="y2QLyuOmQJnm9BtM_lpy-3">
          <mxGeometry relative="1" as="geometry">
            <mxPoint x="115" y="120" as="targetPoint" />
          </mxGeometry>
        </mxCell>
        <mxCell id="y2QLyuOmQJnm9BtM_lpy-7" style="edgeStyle=orthogonalEdgeStyle;rounded=0;orthogonalLoop=1;jettySize=auto;html=1;exitX=0.5;exitY=1;exitDx=0;exitDy=0;" edge="1" parent="1" source="y2QLyuOmQJnm9BtM_lpy-3" target="y2QLyuOmQJnm9BtM_lpy-6">
          <mxGeometry relative="1" as="geometry" />
        </mxCell>
        <mxCell id="y2QLyuOmQJnm9BtM_lpy-3" value="admin logs in (AD001)" style="rounded=1;whiteSpace=wrap;html=1;" vertex="1" parent="1">
          <mxGeometry x="65" y="110" width="100" height="40" as="geometry" />
        </mxCell>
        <mxCell id="y2QLyuOmQJnm9BtM_lpy-16" style="edgeStyle=orthogonalEdgeStyle;rounded=0;orthogonalLoop=1;jettySize=auto;html=1;exitX=0.5;exitY=1;exitDx=0;exitDy=0;entryX=1;entryY=0.75;entryDx=0;entryDy=0;" edge="1" parent="1" source="y2QLyuOmQJnm9BtM_lpy-4" target="y2QLyuOmQJnm9BtM_lpy-11">
          <mxGeometry relative="1" as="geometry" />
        </mxCell>
        <mxCell id="y2QLyuOmQJnm9BtM_lpy-4" value="search for vendor (AD016)" style="rounded=1;whiteSpace=wrap;html=1;" vertex="1" parent="1">
          <mxGeometry x="210" y="180" width="85" height="50" as="geometry" />
        </mxCell>
        <mxCell id="y2QLyuOmQJnm9BtM_lpy-8" style="edgeStyle=orthogonalEdgeStyle;rounded=0;orthogonalLoop=1;jettySize=auto;html=1;exitX=1;exitY=0.5;exitDx=0;exitDy=0;entryX=0;entryY=0.5;entryDx=0;entryDy=0;" edge="1" parent="1" source="y2QLyuOmQJnm9BtM_lpy-6" target="y2QLyuOmQJnm9BtM_lpy-4">
          <mxGeometry relative="1" as="geometry" />
        </mxCell>
        <mxCell id="y2QLyuOmQJnm9BtM_lpy-10" style="edgeStyle=orthogonalEdgeStyle;rounded=0;orthogonalLoop=1;jettySize=auto;html=1;exitX=0.5;exitY=1;exitDx=0;exitDy=0;entryX=0.5;entryY=0;entryDx=0;entryDy=0;" edge="1" parent="1" source="y2QLyuOmQJnm9BtM_lpy-6" target="y2QLyuOmQJnm9BtM_lpy-9">
          <mxGeometry relative="1" as="geometry">
            <Array as="points">
              <mxPoint x="119" y="230" />
            </Array>
          </mxGeometry>
        </mxCell>
        <mxCell id="y2QLyuOmQJnm9BtM_lpy-6" value="" style="rhombus;whiteSpace=wrap;html=1;" vertex="1" parent="1">
          <mxGeometry x="80" y="180" width="80" height="50" as="geometry" />
        </mxCell>
        <mxCell id="y2QLyuOmQJnm9BtM_lpy-13" style="edgeStyle=orthogonalEdgeStyle;rounded=0;orthogonalLoop=1;jettySize=auto;html=1;exitX=0.5;exitY=1;exitDx=0;exitDy=0;entryX=0.5;entryY=0;entryDx=0;entryDy=0;" edge="1" parent="1" source="y2QLyuOmQJnm9BtM_lpy-9" target="y2QLyuOmQJnm9BtM_lpy-11">
          <mxGeometry relative="1" as="geometry" />
        </mxCell>
        <mxCell id="y2QLyuOmQJnm9BtM_lpy-9" value="browse vendor&amp;nbsp;" style="rounded=1;whiteSpace=wrap;html=1;" vertex="1" parent="1">
          <mxGeometry x="67.5" y="270" width="102.5" height="40" as="geometry" />
        </mxCell>
        <mxCell id="y2QLyuOmQJnm9BtM_lpy-14" style="edgeStyle=orthogonalEdgeStyle;rounded=0;orthogonalLoop=1;jettySize=auto;html=1;exitX=0.5;exitY=1;exitDx=0;exitDy=0;entryX=0.5;entryY=0;entryDx=0;entryDy=0;" edge="1" parent="1" source="y2QLyuOmQJnm9BtM_lpy-11" target="y2QLyuOmQJnm9BtM_lpy-12">
          <mxGeometry relative="1" as="geometry" />
        </mxCell>
        <mxCell id="y2QLyuOmQJnm9BtM_lpy-11" value="Selects vendors profile&amp;nbsp;" style="rounded=1;whiteSpace=wrap;html=1;" vertex="1" parent="1">
          <mxGeometry x="67.5" y="330" width="102.5" height="40" as="geometry" />
        </mxCell>
        <mxCell id="y2QLyuOmQJnm9BtM_lpy-18" style="edgeStyle=orthogonalEdgeStyle;rounded=0;orthogonalLoop=1;jettySize=auto;html=1;exitX=0.5;exitY=1;exitDx=0;exitDy=0;" edge="1" parent="1" source="y2QLyuOmQJnm9BtM_lpy-12" target="y2QLyuOmQJnm9BtM_lpy-17">
          <mxGeometry relative="1" as="geometry" />
        </mxCell>
        <mxCell id="y2QLyuOmQJnm9BtM_lpy-12" value="clicks&amp;nbsp; &quot;update vendors details&quot;&lt;br&gt;button&amp;nbsp;" style="rounded=1;whiteSpace=wrap;html=1;" vertex="1" parent="1">
          <mxGeometry x="70" y="390" width="100" height="50" as="geometry" />
        </mxCell>
        <mxCell id="y2QLyuOmQJnm9BtM_lpy-20" style="edgeStyle=orthogonalEdgeStyle;rounded=0;orthogonalLoop=1;jettySize=auto;html=1;exitX=0.5;exitY=1;exitDx=0;exitDy=0;" edge="1" parent="1" source="y2QLyuOmQJnm9BtM_lpy-17" target="y2QLyuOmQJnm9BtM_lpy-19">
          <mxGeometry relative="1" as="geometry" />
        </mxCell>
        <mxCell id="y2QLyuOmQJnm9BtM_lpy-17" value="edit fields&amp;nbsp;" style="rounded=1;whiteSpace=wrap;html=1;" vertex="1" parent="1">
          <mxGeometry x="78.75" y="470" width="80" height="40" as="geometry" />
        </mxCell>
        <mxCell id="y2QLyuOmQJnm9BtM_lpy-22" value="" style="edgeStyle=orthogonalEdgeStyle;rounded=0;orthogonalLoop=1;jettySize=auto;html=1;" edge="1" parent="1" source="y2QLyuOmQJnm9BtM_lpy-19" target="y2QLyuOmQJnm9BtM_lpy-21">
          <mxGeometry relative="1" as="geometry" />
        </mxCell>
        <mxCell id="y2QLyuOmQJnm9BtM_lpy-19" value="save changes" style="rounded=1;whiteSpace=wrap;html=1;" vertex="1" parent="1">
          <mxGeometry x="80" y="540" width="80" height="40" as="geometry" />
        </mxCell>
        <mxCell id="y2QLyuOmQJnm9BtM_lpy-24" value="" style="edgeStyle=orthogonalEdgeStyle;rounded=0;orthogonalLoop=1;jettySize=auto;html=1;" edge="1" parent="1" source="y2QLyuOmQJnm9BtM_lpy-21" target="y2QLyuOmQJnm9BtM_lpy-23">
          <mxGeometry relative="1" as="geometry" />
        </mxCell>
        <mxCell id="y2QLyuOmQJnm9BtM_lpy-29" value="details not saved" style="edgeStyle=orthogonalEdgeStyle;rounded=0;orthogonalLoop=1;jettySize=auto;html=1;exitX=0.5;exitY=0;exitDx=0;exitDy=0;entryX=0.5;entryY=1;entryDx=0;entryDy=0;" edge="1" parent="1" source="y2QLyuOmQJnm9BtM_lpy-21" target="y2QLyuOmQJnm9BtM_lpy-27">
          <mxGeometry relative="1" as="geometry" />
        </mxCell>
        <mxCell id="y2QLyuOmQJnm9BtM_lpy-21" value="" style="rhombus;whiteSpace=wrap;html=1;" vertex="1" parent="1">
          <mxGeometry x="200" y="530" width="80" height="60" as="geometry" />
        </mxCell>
        <mxCell id="y2QLyuOmQJnm9BtM_lpy-32" value="" style="edgeStyle=orthogonalEdgeStyle;rounded=0;orthogonalLoop=1;jettySize=auto;html=1;" edge="1" parent="1" source="y2QLyuOmQJnm9BtM_lpy-23" target="y2QLyuOmQJnm9BtM_lpy-31">
          <mxGeometry relative="1" as="geometry" />
        </mxCell>
        <mxCell id="y2QLyuOmQJnm9BtM_lpy-23" value="&quot;vendors deatails updated&quot; message" style="rounded=1;whiteSpace=wrap;html=1;" vertex="1" parent="1">
          <mxGeometry x="440" y="535" width="120" height="50" as="geometry" />
        </mxCell>
        <mxCell id="y2QLyuOmQJnm9BtM_lpy-26" value="changes saved succesfully&amp;nbsp;" style="text;html=1;align=center;verticalAlign=middle;resizable=0;points=[];autosize=1;strokeColor=none;fillColor=none;" vertex="1" parent="1">
          <mxGeometry x="270" y="535" width="170" height="30" as="geometry" />
        </mxCell>
        <mxCell id="y2QLyuOmQJnm9BtM_lpy-30" style="edgeStyle=orthogonalEdgeStyle;rounded=0;orthogonalLoop=1;jettySize=auto;html=1;exitX=0;exitY=0.5;exitDx=0;exitDy=0;entryX=1;entryY=0.5;entryDx=0;entryDy=0;" edge="1" parent="1" source="y2QLyuOmQJnm9BtM_lpy-27" target="y2QLyuOmQJnm9BtM_lpy-17">
          <mxGeometry relative="1" as="geometry" />
        </mxCell>
        <mxCell id="y2QLyuOmQJnm9BtM_lpy-27" value="error message display&amp;nbsp;" style="rounded=1;whiteSpace=wrap;html=1;" vertex="1" parent="1">
          <mxGeometry x="210" y="440" width="100" height="40" as="geometry" />
        </mxCell>
        <mxCell id="y2QLyuOmQJnm9BtM_lpy-31" value="" style="ellipse;html=1;shape=endState;fillColor=#000000;strokeColor=#ff0000;" vertex="1" parent="1">
          <mxGeometry x="485" y="630" width="30" height="30" as="geometry" />
        </mxCell>
      </root>
    </mxGraphModel>
  </diagram>
</mxfile>
